<svg width="300" height="250">
<rect x="0" y="0"
      width="50" height="50" style="fill:rgb(100,100,100);stroke-width:3;stroke:rgb(0,0,0)" />
<rect x="50" y="0"
      width="50" height="50" style="fill:rgb(100,100,100);stroke-width:3;stroke:rgb(0,0,0)" />
<rect x="100" y="0"
      width="50" height="50" style="fill:rgb(100,100,100);stroke-width:3;stroke:rgb(0,0,0)" />
<rect x="150" y="0"
      width="50" height="50" style="fill:rgb(100,100,100);stroke-width:3;stroke:rgb(0,0,0)" />
<rect x="200" y="0"
      width="50" height="50" style="fill:rgb(100,100,100);stroke-width:3;stroke:rgb(0,0,0)" />
<rect x="250" y="0"
      width="50" height="50" style="fill:rgb(255,255,255);stroke-width:3;stroke:rgb(0,0,0)" />

<rect x="0" y="50"
      width="50" height="50" style="fill:rgb(100,100,100);stroke-width:3;stroke:rgb(0,0,0)" />
<rect x="50" y="50"
      width="50" height="50" style="fill:rgb(0,0,0);stroke-width:3;stroke:rgb(0,0,0)" />
<rect x="100" y="50"
      width="50" height="50" style="fill:rgb(0,0,0);stroke-width:3;stroke:rgb(0,0,0)" />
<rect x="150" y="50"
      width="50" height="50" style="fill:rgb(0,0,0);stroke-width:3;stroke:rgb(0,0,0)" />
<rect x="200" y="50"
      width="50" height="50" style="fill:rgb(100,100,100);stroke-width:3;stroke:rgb(0,0,0)" />
<rect x="250" y="50"
      width="50" height="50" style="fill:rgb(100,100,100);stroke-width:3;stroke:rgb(0,0,0)" />

<rect x="0" y="100"
      width="50" height="50" style="fill:rgb(100,100,100);stroke-width:3;stroke:rgb(0,0,0)" />
<rect x="50" y="100"
      width="50" height="50" style="fill:rgb(0,0,0);stroke-width:3;stroke:rgb(0,0,0)" />
<rect x="100" y="100"
      width="50" height="50" style="fill:rgb(0,0,0);stroke-width:3;stroke:rgb(0,0,0)" />
<rect x="150" y="100"
      width="50" height="50" style="fill:rgb(0,0,0);stroke-width:3;stroke:rgb(0,0,0)" />
<rect x="200" y="100"
      width="50" height="50" style="fill:rgb(0,0,0);stroke-width:3;stroke:rgb(0,0,0)" />
<rect x="250" y="100"
      width="50" height="50" style="fill:rgb(100,100,100);stroke-width:3;stroke:rgb(0,0,0)" />

<rect x="0" y="150"
      width="50" height="50" style="fill:rgb(100,100,100);stroke-width:3;stroke:rgb(0,0,0)" />
<rect x="50" y="150"
      width="50" height="50" style="fill:rgb(0,0,0);stroke-width:3;stroke:rgb(0,0,0)" />
<rect x="100" y="150"
      width="50" height="50" style="fill:rgb(0,0,0);stroke-width:3;stroke:rgb(0,0,0)" />
<rect x="150" y="150"
      width="50" height="50" style="fill:rgb(0,0,0);stroke-width:3;stroke:rgb(0,0,0)" />
<rect x="200" y="150"
      width="50" height="50" style="fill:rgb(0,0,0);stroke-width:3;stroke:rgb(0,0,0)" />
<rect x="250" y="150"
      width="50" height="50" style="fill:rgb(100,100,100);stroke-width:3;stroke:rgb(0,0,0)" />

<rect x="0" y="200"
      width="50" height="50" style="fill:rgb(100,100,100);stroke-width:3;stroke:rgb(0,0,0)" />
<rect x="50" y="200"
      width="50" height="50" style="fill:rgb(100,100,100);stroke-width:3;stroke:rgb(0,0,0)" />
<rect x="100" y="200"
      width="50" height="50" style="fill:rgb(100,100,100);stroke-width:3;stroke:rgb(0,0,0)" />
<rect x="150" y="200"
      width="50" height="50" style="fill:rgb(100,100,100);stroke-width:3;stroke:rgb(0,0,0)" />
<rect x="200" y="200"
      width="50" height="50" style="fill:rgb(100,100,100);stroke-width:3;stroke:rgb(0,0,0)" />
<rect x="250" y="200"
      width="50" height="50" style="fill:rgb(100,100,100);stroke-width:3;stroke:rgb(0,0,0)" />


</svg>
